<svg width="32" height="32" viewBox="0 0 32 32" fill="none" xmlns="http://www.w3.org/2000/svg">
  <rect width="32" height="32" rx="8" fill="#0A0F1E"/>
  <defs>
    <linearGradient id="rGrad" x1="17" y1="8" x2="26" y2="24" gradientUnits="userSpaceOnUse">
      <stop offset="0%" stop-color="#4DA6FF"/>
      <stop offset="100%" stop-color="#0044CC"/>
    </linearGradient>
  </defs>
  <!-- P — white -->
  <path d="M6 9h6.5c2.5 0 4.5 2 4.5 4.5S15 18 12.5 18H9.5v5H6V9zm3.5 3v3.5H12c.8 0 1.5-.7 1.5-1.75S12.8 12 12 12H9.5z" fill="white"/>
  <!-- R — blue gradient -->
  <path d="M17 9h6c2 0 3.5 1.5 3.5 3.5 0 1.4-.8 2.6-2 3.2L27 23h-3.5l-2.5-6.5H20V23h-3V9zm3 2.5v3H23c.7 0 1.2-.6 1.2-1.5S23.7 11.5 23 11.5h-3z" fill="url(#rGrad)"/>
</svg>
